<?xml version="1.0" encoding="UTF-8"?>
<svg version="1.1" viewBox="0 0 5.118 641.76" xmlns="http://www.w3.org/2000/svg"><g transform="translate(-7.9899e-8 -410.6)"><path d="m2.6328 1050.8c-0.2298-5.1049-0.1081-16.43 0.365-33.976 0.4731-17.546 0.661-31.346 0.5635-41.4-0.097-10.054-0.1068-15.896-0.028-17.526 0.079-1.6299 0.1012-9.7155 0.068-24.257-0.034-14.541-0.1442-24.658-0.3319-30.352-0.1878-5.6935-0.286-10.542-0.2949-14.545-0.01-4.0035-0.1846-9.8101-0.5274-17.42s-0.4862-12.923-0.4299-15.941c0.056-3.0176 0.2821-7.3506 0.6778-12.999 0.3959-5.6482 0.4631-15.356 0.2017-29.122-0.2614-13.767-0.2958-23.864-0.1033-30.292 0.1925-6.4281 0.3082-17.022 0.347-31.782 0.039-14.76-4e-4 -28.37-0.1174-40.829-0.117-12.46-0.3147-22.049-0.5927-28.768-0.2781-6.7191-0.3299-14.789-0.1558-24.211 0.1741-9.4217 0.1938-26.802 0.059-52.142-0.1347-25.34-0.1743-43.501-0.1186-54.484 0.056-10.983-0.052-23.804-0.3235-38.463-0.2713-14.66-0.4016-25.891-0.3908-33.695 0.011-7.8033 0.2387-17.779 0.6836-29.927 0.4448-12.148 0.6107-19.344 0.4974-21.589-0.1133-2.2446-0.2041-7.2431-0.2723-14.995" fill="none" stroke="#bbb" stroke-linecap="round" stroke-linejoin="round" stroke-miterlimit="10" stroke-width="3"/></g></svg>
