<?xml version="1.0" encoding="UTF-8"?>
<svg width="25.6mm" height="34.113mm" version="1.1" viewBox="0 0 90.709 120.87" xmlns="http://www.w3.org/2000/svg"><g transform="translate(-.1459 -931.34)" fill="none" stroke="#3c3c3c" stroke-linecap="round" stroke-linejoin="round" stroke-miterlimit="10" stroke-width="3"><path d="m60.859 932.85c-1.7726 0.5325-3.582 0.83539-5.4281 0.90879-1.8462 0.0734-3.6436 0.28209-5.3922 0.62614-1.7486 0.34401-2.9888 0.70385-3.7206 1.0796-0.73175 0.37568-1.9716 1.2734-3.7196 2.6932-1.7479 1.4198-2.9896 2.5951-3.7248 3.5257-0.73528 0.93059-1.452 2.2836-2.1501 4.0591-0.69812 1.7754-1.1358 3.3172-1.3132 4.6251-0.17732 1.308-0.18252 2.6794-0.0156 4.1143 0.16694 1.4349 0.47098 2.7138 0.91213 3.8368 0.44115 1.1229 1.4843 2.6842 3.1295 4.6838 1.6452 1.9996 2.9572 3.2828 3.9361 3.8498 0.97893 0.56697 1.9462 1.2474 2.9017 2.0412 0.95552 0.7938 1.8302 1.4333 2.6239 1.9185 0.79376 0.48512 1.8776 1.0006 3.2514 1.5463 1.3738 0.54562 3.0252 0.98393 4.9541 1.3148 1.9289 0.33088 3.7293 0.52784 5.4012 0.59085 1.6718 0.063 3.0959 3e-3 4.2722-0.18313 1.1763-0.18513 3.1103-0.7063 5.802-1.5635 2.6917-0.85728 4.8193-1.7597 6.3827-2.7071 1.5635-0.94753 2.8452-1.5744 3.8452-1.8808 1-0.30633 1.6359-0.56253 1.9077-0.76851 0.27179-0.206 0.57321-0.57904 0.90429-1.119 0.33106-0.54 0.98845-2.0479 1.9722-4.5236 0.98371-2.4758 1.5397-4.286 1.6679-5.4304 0.12823-1.1445 0.128-2.2275-6.7e-4 -3.2489-0.12866-1.0215-0.38131-1.9482-0.75795-2.7801-0.37664-0.83195-1.0114-1.9559-1.9042-3.3719-0.89286-1.4161-1.834-2.5768-2.8235-3.4823-0.98945-0.90546-2.1356-1.8044-3.4386-2.6968-1.303-0.89245-3.3055-1.9773-6.0076-3.2544-2.7021-1.2772-5.3858-2.2932-8.0513-3.048-2.6654-0.75482-4.5219-1.1448-5.5695-1.1698-1.0476-0.0251-2.0719 0.17872-3.0731 0.61157"/><path d="m45.012 953.58 0.47448 5.694"/><path d="m59.056 957.56 0.0949 5.2385"/><path d="m39.413 967.58c-0.37885 0.17573-0.83258 0.7658-1.3612 1.7702-0.52861 1.0044-1.474 2.2472-2.8363 3.7285s-3.0117 3.0511-4.9484 4.7093c-1.9366 1.6582-4.1716 3.3528-6.7048 5.084-2.5332 1.7311-4.5495 3.0344-6.0488 3.91-1.4993 0.87544-2.847 1.5789-4.0432 2.1103-1.1961 0.53139-2.8616 1.1245-4.9963 1.7793-2.1348 0.65483-3.7557 1.3865-4.8628 2.1951-1.1071 0.8086-1.718 1.3544-1.8325 1.6374-0.11451 0.28292-0.14519 0.77277-0.092 1.4696 0.0532 0.69669 0.19893 1.3193 0.43732 1.8678 0.23839 0.54848 0.41155 0.88043 0.51949 0.99583 0.10796 0.11537 0.37875 0.21503 0.81239 0.29891 0.43363 0.0839 1.7573-0.0682 3.9711-0.45628 2.2137-0.3881 4.4336-0.88886 6.6597-1.5022 2.2261-0.6134 3.6206-1.0269 4.1836-1.2406 0.56304-0.21373 1.4936-0.75875 2.7917-1.6351 1.2981-0.87635 2.5083-1.5423 3.6305-1.9978 1.1222-0.45552 2.2752-1.0084 3.4588-1.6587 1.1836-0.65025 2.9255-1.7346 5.2258-3.253 2.3003-1.5184 3.8259-2.7282 4.5768-3.6294 0.75092-0.90122 0.96405-1.1328 0.6394-0.69488s-1.0953 0.9692-2.3119 1.5938"/><path d="m66.648 989.79c0.52589 11.454 1.0717 19.809 1.6376 25.065 0.56585 5.2561 1.0044 10.402 1.3156 15.438 0.31125 5.0362 0.63184 8.8383 0.9618 11.406 0.32995 2.5678 0.49453 4.437 0.49371 5.6075-8.1e-4 1.1704-0.073 1.9318-0.21656 2.2841-0.14355 0.3523-0.42647 0.6299-0.84876 0.8328-0.42226 0.203-1.3346 0.299-2.7368 0.2879-1.4023-0.011-2.204-0.083-2.4052-0.2156-0.20114-0.1328-0.38158-0.3799-0.54129-0.7415-0.15971-0.3615-0.4392-1.3089-0.83848-2.8422-0.39927-1.5333-0.76235-3.4816-1.0892-5.8448-0.32686-2.3633-0.69907-4.362-1.1166-5.9963-0.41755-1.6343-0.65889-4.0701-0.724-7.3076-0.0651-3.2374-0.19845-5.4215-0.40005-6.5522-0.20159-1.1308-0.61705-1.7893-1.2464-1.9757-0.62933-0.1862-2.7881-0.118-6.4764 0.205-3.6883 0.3228-6.1613 0.3358-7.4189 0.039-1.2576-0.2969-2.0334-0.5554-2.3274-0.7755-0.29395-0.2202-0.431-0.4442-0.41114-0.6719"/><path d="m70.064 975.44c0.96726 0.90767 2.3173 2.8198 4.05 5.7364 1.7328 2.9167 3.7057 7.0541 5.9187 12.412 2.213 5.3583 3.7232 9.2695 4.5305 11.734 0.80731 2.4642 1.3354 4.3725 1.5844 5.7248 0.24894 1.3524 0.38835 2.6825 0.4182 3.9904 0.0299 1.3079-0.18372 2.1403-0.64072 2.4971-0.45701 0.3568-0.87778 0.5277-1.2623 0.5126-0.38452-0.015-0.99158-0.2654-1.8212-0.7513-0.82959-0.4858-1.8358-1.374-3.0188-2.6646-1.1829-1.2906-1.9454-2.4412-2.2875-3.452-0.34205-1.0108-0.77646-1.732-1.3032-2.1636-0.52675-0.4316-1.8244-2.5724-3.8931-6.4223-2.0686-3.85-3.2794-6.4604-3.6322-7.8312-0.35281-1.3709-0.88101-2.6492-1.5846-3.8348"/><path d="m39.128 983.07c-1.4452 5.8723-2.5039 10.986-3.176 15.34-0.67216 4.354-1.3554 7.7461-2.0498 10.176-0.69436 2.4303-1.4188 5.3-2.1734 8.6091-0.75452 3.3091-1.613 6.3995-2.5755 9.2711-0.96247 2.8715-1.7259 5.6313-2.2903 8.2791-0.56445 2.6478-1.0595 5.6011-1.4853 8.8598-0.42574 3.2587-0.62343 5.1013-0.59305 5.5277 0.0304 0.4264 0.18254 0.746 0.45646 0.9587 0.27393 0.2127 1.0869 0.2531 2.439 0.1211 1.3521-0.1319 2.287-0.4018 2.8049-0.8097 0.51785-0.4079 0.9415-0.855 1.271-1.3414 0.32943-0.4865 0.83456-1.5327 1.5154-3.1385 0.6808-1.6058 1.3921-3.8105 2.134-6.6139 0.74184-2.8035 1.5069-5.3475 2.2951-7.6319 0.78823-2.2846 1.496-4.071 2.1232-5.3592s1.5658-4.0209 2.8156-8.198"/><path d="m35.522 1005.6c0.0821 0.383 0.34062 0.6439 0.77543 0.7826 0.43482 0.1386 0.91944 0.3974 1.4539 0.7765s1.6837 0.8052 3.4477 1.2783c1.764 0.4731 5.6904 0.7061 11.779 0.6991 6.0886-0.01 9.7549-0.133 10.999-0.3778 1.244-0.2447 2.2926-0.7661 3.1458-1.5643"/></g></svg>
