<?xml version="1.0" encoding="UTF-8"?>
<svg version="1.1" viewBox="0 0 642.05 5.4068" xmlns="http://www.w3.org/2000/svg"><g transform="translate(-3.4534e-8 -1047)"><path d="m1.6677 1049.7c5.1049-0.2298 16.43-0.1081 33.976 0.365s31.346 0.661 41.4 0.5635c10.054-0.097 15.896-0.1068 17.526-0.028 1.63 0.079 9.7156 0.1012 24.257 0.068 14.541-0.034 24.659-0.1442 30.352-0.3319 5.6935-0.1878 10.542-0.286 14.545-0.2949 4.0036-0.01 9.8102-0.1846 17.42-0.5274 7.6098-0.3428 12.923-0.4862 15.941-0.4299 3.0177 0.056 7.3506 0.2821 12.999 0.6778 5.6483 0.3959 15.356 0.4631 29.123 0.2017 13.767-0.2614 23.864-0.2958 30.292-0.1033 6.428 0.1925 17.022 0.3082 31.782 0.347 14.76 0.039 28.37-4e-4 40.829-0.1174 12.459-0.117 22.049-0.3147 28.768-0.5927 6.7191-0.2781 14.789-0.3299 24.211-0.1558 9.4217 0.1741 26.802 0.1938 52.142 0.059 25.34-0.1347 43.501-0.1743 54.484-0.1186 10.983 0.056 23.804-0.052 38.463-0.3235 14.66-0.2713 25.891-0.4016 33.695-0.3908 7.8033 0.011 17.779 0.2387 29.927 0.6836 12.148 0.4448 19.344 0.6107 21.589 0.4974 2.2446-0.1133 7.2431-0.2041 14.995-0.2723" fill="none" stroke="#3c3c3c" stroke-linecap="round" stroke-linejoin="round" stroke-miterlimit="10" stroke-width="3"/></g></svg>
