<?xml version="1.0" encoding="UTF-8"?>
<svg width="69.622mm" height="37.07mm" version="1.1" viewBox="0 0 246.69 131.35" xmlns="http://www.w3.org/2000/svg"><g transform="translate(0 -921.01)" fill="none" stroke="#3c3c3c" stroke-linecap="round" stroke-linejoin="round" stroke-miterlimit="10" stroke-width="3"><path d="m2.1496 942.6c-0.26594 12.489 2.0007 24.94 0.85197 37.436-0.20162 8.1314-0.39776 16.272 0.11292 24.404 0.058436 12.691-0.66719 24.396 0.11452 37.076 3.2538 5.7445 10.086 7.5674 16.036 8.2186 4.5325-0.076 9.0757-0.7269 13.621-0.042 6.8008 0.7623 13.939 1.4393 20.783 0.7081 8.3307-0.4558 13.765-0.1043 22.085-0.01 1.1557-0.1256 5.5724-0.4065 7.1826-0.4457"/><path d="m82.148 1050c14.288-0.627 28.588-0.2202 42.877-0.3994 14.067-0.7752 28.234 0.9773 42.252-0.5146 13.334-1.0531 26.766 0.1694 40.134-0.5311 7.1855-0.7075 14.412 0.1503 21.614-0.4527 6.8151-0.42 11.819-0.1448 13.133-6.0369 0.32602-4.8023 0.54781-9.6145 1.2189-14.388"/><path d="m243.38 1027.4c0.46355-7.013 0.6778-14.024 1.436-21.02 0.71112-10.612-0.41551-21.216-0.70333-31.825-0.68558-13.517-1.1389-27.043-0.92619-40.578 1.6159-7.3428-4.4327-12.834-11.598-10.974-8.1612 0.5411-16.346 1.0402-24.497 1.4646-5.9414 0.9113-11.982-0.10388-17.963 0.35638-6.5503-0.44688-13.147-1.645-19.65-0.0885-10.661 0.58917-21.324-1.0198-32.004-0.40699-8.5575 0.0726-17.101 0.90545-25.639-0.0257-1.6707-0.0389-3.3425-0.0251-5.0125 0.0354"/><path d="m106.63 924.35c-8.3097-0.0571-16.647-0.0391-24.887-1.219-11.574-0.85318-23.076 1.3549-34.647 1.3234-8.1211 0.19582-16.248-0.0129-24.359-0.41488-6.014-0.31489-12.015-1.2367-18.039-1.1405-3.8036 1.8251-2.9473 6.8604-3.0024 10.364 0.08752 2.9526 0.22394 5.9035 0.38548 8.8529"/></g></svg>
