<?xml version="1.0" encoding="UTF-8"?>
<svg version="1.1" viewBox="0 0 39.891 39.897" xmlns="http://www.w3.org/2000/svg"><g transform="translate(-1.504 -1011.1)"><path d="m13.709 1012.8c-2.0697 0.6378-6.3858 2.8071-7.4186 4.8425-2.4096 3.9831-2.3658 7.4436-2.7518 12.8-0.046617 4.6822-0.029008 8.2158 2.6989 12.125 3.0948 4.5471 8.738 6.6008 14.062 6.7532 4.2132 0.3966 8.6508-0.1597 12.253-2.5248 2.1924-1.3482 4.2726-3.1669 4.9636-5.747 1.2593-3.6923 1.504-5.6763 1.8381-9.5596 0.28527-3.26-1.1673-9.5374-3.0782-12.087-2.2514-2.5963-3.5877-3.6766-6.5044-5.2873-3.0965-1.5686-6.8976-1.1317-10.361-1.3619-2.9067-0.2991-7.4559-0.2482-9.8441 1.8858" fill="none" stroke="#3c3c3c" stroke-linecap="round" stroke-linejoin="round" stroke-miterlimit="10" stroke-width="3"/></g></svg>
