<?xml version="1.0" encoding="UTF-8"?>
<svg version="1.1" viewBox="0 0 512 512" xmlns="http://www.w3.org/2000/svg"><g transform="translate(0 -540.36)"><rect y="540.36" width="512" height="512" rx="64" ry="64" fill="#fdf7f1" fill-opacity=".94118"/><path d="m194.84 748.51c9.558-33.448 18.543-60.157 26.956-80.126 8.4127-19.968 16.04-34.911 22.882-44.826 6.8421-9.9162 14.259-16.45 22.252-19.604 7.9919-3.1522 13.26-2.9959 15.803 0.47116 2.5434 3.4648 5.32 9.6266 8.3286 18.484 3.0094 8.8578 5.0221 24.665 6.0386 47.417 1.017 22.755 3.7473 41.17 8.1906 55.245 4.4434 14.075 7.9476 21.619 10.512 22.636 2.5654 1.0113 6.0807 0.98828 10.547-0.11492 4.4665-1.0687 13.566-1.2928 27.297-0.65503 13.733 0.64354 25.05 2.989 33.953 7.0479 8.9028 4.0577 21.944 7.6569 39.124 10.798 17.18 3.1407 27.407 5.5298 30.682 7.1662 3.2751 1.6376 5.2074 4.137 5.7967 7.5006 0.59068 3.3625 0.36888 5.7367-0.66307 7.1191-1.0331 1.3836-8.585 4.4071-22.659 9.0716-14.073 4.6645-28.095 11.679-42.065 21.045-13.97 9.3669-24.85 17.962-32.642 25.785-7.7911 7.8236-16.486 15.315-26.085 22.473-9.5987 7.1582-9.2988 16.841 0.89866 29.046 10.197 12.204 18.457 25.635 24.778 40.289 6.321 14.653 9.8363 27.351 10.546 38.095 0.71019 10.745-0.16892 18.663-2.636 23.752-2.4662 5.0908-7.6688 6.5537-15.607 4.3898-7.9376-2.1638-15.623-6.9651-23.057-14.403-7.434-7.4386-17.349-13.729-29.744-18.873-12.395-5.1437-23.071-13.756-32.024-25.838-8.9537-12.082-16.139-20.51-21.555-25.283-5.4156-4.7737-10.152-5.9631-14.208-3.5693-4.0562 2.3937-10.278 7.827-18.664 16.298-8.386 8.4717-16.109 17.249-23.169 26.332-7.06 9.0831-12.685 14.088-16.875 15.015-4.1904 0.93082-10.16 4.2864-17.91 10.082-7.7495 5.7941-13.149 8.8671-16.199 9.2187-3.0493 0.3562-5.7431-0.2873-8.0809-1.9065-2.3378-1.6226-5.0693-5.1506-8.1945-10.585-3.1242-5.4356-4.349-10.078-3.6739-13.928 0.67572-3.852 4.8536-13.602 12.536-29.25 7.682-15.648 15.623-29.244 23.822-40.79 8.1999-11.545 12.377-19.274 12.532-23.189 0.15513-3.9129-1.7657-8.2384-5.7633-12.973-3.9966-4.7357-12.309-9.2991-24.939-13.692-12.629-4.3933-30.628-13.71-53.996-27.949-23.368-14.239-34.753-23.341-34.156-27.305 0.59757-3.9635 2.4265-8.4648 5.4871-13.504 3.0607-5.038 8.6345-9.5174 16.723-13.437 8.0879-3.9198 47.352-6.0745 117.79-6.4629" fill="none" stroke="#3c3c3c" stroke-linecap="round" stroke-linejoin="round" stroke-miterlimit="10" stroke-width="37.792"/></g></svg>
